<svg fill="none" height="24" viewBox="0 0 24 24" width="24" xmlns="http://www.w3.org/2000/svg"><g stroke="#141b34"><path d="m11.9998 16h.009" stroke-linecap="round" stroke-linejoin="round" stroke-width="2"/><g stroke-width="1.5"><path d="m12 13v-5" stroke-linecap="round" stroke-linejoin="round"/><path d="m16.3083 4.38394c-.591 0-.8866 0-1.1558-.09989-.0374-.01388-.0742-.02914-.1105-.04577-.261-.11973-.4699-.32869-.8879-.74661-.9619-.9619-1.4428-1.44285-2.0346-1.4872-.0795-.00596-.1595-.00596-.239 0-.5918.04435-1.0728.5253-2.03465 1.48719-.41792.41793-.62688.62689-.88788.74662-.03625.01663-.07311.03189-.1105.04577-.26922.09989-.56474.09989-1.15576.09989h-.10902c-1.50791 0-2.26186 0-2.7303.46845-.46845.46844-.46845 1.22239-.46845 2.7303v.10902c0 .59102 0 .88654-.09989 1.15576-.01388.03739-.02914.07425-.04577.1105-.11973.261-.32869.46996-.74662.88788-.96189.96185-1.44284 1.44285-1.48719 2.03465-.00596.0795-.00596.1595 0 .239.04435.5918.5253 1.0727 1.48719 2.0346.41793.418.62689.6269.74662.8879.01663.0363.03189.0731.04577.1105.09989.2692.09989.5648.09989 1.1558v.109c0 1.5079 0 2.2619.46845 2.7303.46844.4685 1.22239.4685 2.7303.4685h.10902c.59102 0 .88654 0 1.15576.0998.03739.0139.07425.0292.1105.0458.261.1198.46996.3287.88788.7466.96185.9619 1.44285 1.4429 2.03465 1.4872.0795.006.1595.006.239 0 .5918-.0443 1.0727-.5253 2.0346-1.4872.418-.4179.6269-.6268.8879-.7466.0363-.0166.0731-.0319.1105-.0458.2692-.0998.5648-.0998 1.1558-.0998h.109c1.5079 0 2.2619 0 2.7303-.4685.4685-.4684.4685-1.2224.4685-2.7303v-.109c0-.591 0-.8866.0998-1.1558.0139-.0374.0292-.0742.0458-.1105.1198-.261.3287-.4699.7466-.8879.9619-.9619 1.4429-1.4428 1.4872-2.0346.006-.0795.006-.1595 0-.239-.0443-.5918-.5253-1.0728-1.4872-2.03465-.4179-.41792-.6268-.62688-.7466-.88788-.0166-.03625-.0319-.07311-.0458-.1105-.0998-.26922-.0998-.56474-.0998-1.15576v-.10902c0-1.50791 0-2.26186-.4685-2.7303-.4684-.46845-1.2224-.46845-2.7303-.46845z"/></g></g></svg>