<svg fill="none" height="24" viewBox="0 0 24 24" width="24" xmlns="http://www.w3.org/2000/svg"><g stroke="#141b34"><path d="m5.32171 9.6829c2.41368-4.27094 3.62051-6.40642 5.27659-6.95612.911-.30241 1.8924-.30241 2.8034 0 1.6561.5497 2.8629 2.68518 5.2766 6.95612 2.4137 4.2709 3.6205 6.4064 3.2585 8.1464-.1992.9573-.6899 1.8255-1.4018 2.4804-1.294 1.1903-3.7076 1.1903-8.535 1.1903-4.82735 0-7.24103 0-8.53504-1.1903-.71188-.6549-1.20257-1.5231-1.40174-2.4804-.36203-1.74.84481-3.8755 3.25849-8.1464z" stroke-width="1.5"/><g stroke-linecap="round" stroke-linejoin="round"><path d="m12.2422 17v-4c0-.4714 0-.7071-.1465-.8536-.1464-.1464-.3821-.1464-.8535-.1464" stroke-width="1.5"/><path d="m11.992 8.99997h.009" stroke-width="2"/></g></g></svg>