<svg fill="none" height="24" viewBox="0 0 24 24" width="24" xmlns="http://www.w3.org/2000/svg"><g stroke="#141b34" stroke-linecap="round" stroke-width="1.5"><g stroke-linejoin="round"><path d="m2 16c0-2.3389 0-3.5083.53647-4.3621.27974-.4452.6562-.8217 1.10142-1.1014.85378-.5365 2.02322-.5365 4.36211-.5365h8c2.3389 0 3.5083 0 4.3621.5365.4452.2797.8217.6562 1.1014 1.1014.5365.8538.5365 2.0232.5365 4.3621s0 3.5083-.5365 4.3621c-.2797.4452-.6562.8217-1.1014 1.1014-.8538.5365-2.0232.5365-4.3621.5365h-8c-2.33889 0-3.50833 0-4.36211-.5365-.44522-.2797-.82168-.6562-1.10142-1.1014-.53647-.8538-.53647-2.0232-.53647-4.3621z"/><path d="m20 10c0-1.40013 0-2.1002-.2725-2.63498-.2397-.4704-.6221-.85285-1.0925-1.09254-.5348-.27248-1.2349-.27248-2.635-.27248h-8c-1.40013 0-2.1002 0-2.63498.27248-.4704.23969-.85285.62214-1.09254 1.09254-.27248.53478-.27248 1.23485-.27248 2.63498"/><path d="m18 6c0-1.88562 0-2.82843-.5858-3.41421-.5858-.58579-1.5286-.58579-3.4142-.58579h-4c-1.88562 0-2.82843 0-3.41421.58579-.58579.58578-.58579 1.52859-.58579 3.41421"/></g><path d="m15 14c0 1.1046-.8954 2-2 2h-2c-1.10457 0-2-.8954-2-2"/></g></svg>