<svg fill="none" height="24" viewBox="0 0 24 24" width="24" xmlns="http://www.w3.org/2000/svg"><g stroke="#141b34" stroke-linecap="round" stroke-width="1.5"><path d="m10.2941 14.0163c-.0456-.9919-.72342-1.0163-1.64288-1.0163-1.41639 0-1.65122.3384-1.65122 1.6667v1.6666c0 1.3283.23483 1.6667 1.65122 1.6667.91946 0 1.59728-.0244 1.64288-1.0163m10.7059-3.9837-1.4635 3.9123c-.2713.7251-.4069 1.0877-.6217 1.0877s-.3504-.3626-.6217-1.0877l-1.4635-3.9123m-2.1082 0h-.9725c-.3887 0-.583 0-.7363.0635-.522.216-.5149.7238-.5149 1.1865s-.0071.9706.5149 1.1866c.1533.0634.3476.0634.7363.0634.3886 0 .5829 0 .7362.0634.522.2161.5149.7239.5149 1.1866s.0071.9705-.5149 1.1866c-.1533.0634-.3476.0634-.7362.0634h-1.0592"/><g stroke-linejoin="round"><path d="m15 22h-4.2727c-3.26123 0-4.89184 0-6.02423-.7978-.32445-.2286-.61249-.4997-.85537-.8051-.8477-1.0658-.8477-2.6005-.8477-5.6698v-2.5455c0-2.96315 0-4.44474.46894-5.62805.75387-1.90233 2.3482-3.40287 4.36942-4.1124 1.25727-.44135 2.83144-.44135 5.97984-.44135 1.7991 0 2.6986 0 3.417.2522 1.155.40545 2.066 1.2629 2.4968 2.34994.268.67618.268 1.5228.268 3.21604v2.18182"/><path d="m3 12c0-1.8409 1.49238-3.33333 3.33333-3.33333.66579 0 1.45071.11666 2.09804-.05679.57515-.15412 1.02439-.60336 1.17851-1.17852.17345-.64732.05679-1.43224.05679-2.09803 0-1.84095 1.49243-3.33333 3.33333-3.33333"/></g></g></svg>