<svg fill="none" height="24" viewBox="0 0 24 24" width="24" xmlns="http://www.w3.org/2000/svg"><g stroke="#141b34" stroke-linecap="round" stroke-width="1.5"><path d="m19.5 5.5-.6197 10.0251c-.1584 2.5613-.2375 3.842-.8795 4.7628-.3175.4552-.7261.8394-1.2001 1.1281-.9586.584-2.2417.584-4.808.584-2.56958 0-3.8544 0-4.81365-.5851-.47425-.2892-.88305-.6741-1.20037-1.1301-.6418-.9222-.71923-2.2047-.87407-4.7696l-.60461-10.0152"/><path d="m3 5.5h18m-4.9443 0-.6826-1.40827c-.4535-.93547-.6803-1.40321-1.0714-1.69492-.0867-.06471-.1786-.12227-.2747-.17211-.4331-.2247-.9529-.2247-1.9925-.2247-1.0657 0-1.5985 0-2.03882.23412-.09758.05189-.1907.11178-.27839.17905-.39565.30353-.61666.78838-1.05868 1.75809l-.60569 1.32874"/><path d="m9.5 16.5v-6"/><path d="m14.5 16.5v-6"/></g></svg>