<svg fill="none" height="24" viewBox="0 0 24 24" width="24" xmlns="http://www.w3.org/2000/svg"><g stroke="#141b34" stroke-linecap="round" stroke-width="1.5"><path d="m21 14.0163c-.0456-.9919-.7234-1.0163-1.6429-1.0163-1.4164 0-1.6512.3384-1.6512 1.6667v1.6666c0 1.3283.2348 1.6667 1.6512 1.6667.9195 0 1.5973-.0244 1.6429-1.0163m-10.7051-1.4837c0 1.3807-1.10614 2.5-2.47061 2.5-.30787 0-.46181 0-.57647-.067-.27452-.1604-.24706-.485-.24706-.7663v-3.3334c0-.2813-.02746-.6059.24706-.7663.11466-.067.2686-.067.57647-.067 1.36447 0 2.47061 1.1193 2.47061 2.5zm3.7051 2.5c-.7764 0-1.1646 0-1.4059-.2441-.2412-.2441-.2412-.6369-.2412-1.4226v-1.6666c0-.7857 0-1.1785.2412-1.4226.2413-.2441.6295-.2441 1.4059-.2441s1.1646 0 1.4059.2441c.2412.2441.2412.6369.2412 1.4226v1.6666c0 .7857 0 1.1785-.2412 1.4226-.2413.2441-.6295.2441-1.4059.2441z"/><g stroke-linejoin="round"><path d="m15 22h-4.2727c-3.26123 0-4.89184 0-6.02423-.7978-.32445-.2286-.61249-.4997-.85537-.8051-.8477-1.0658-.8477-2.6005-.8477-5.6698v-2.5455c0-2.96315 0-4.44474.46894-5.62805.75387-1.90233 2.3482-3.40287 4.36942-4.1124 1.25727-.44135 2.83144-.44135 5.97984-.44135 1.7991 0 2.6986 0 3.417.2522 1.155.40545 2.066 1.2629 2.4968 2.34994.268.67618.268 1.5228.268 3.21604v2.18182"/><path d="m3 12c0-1.8409 1.49238-3.33333 3.33333-3.33333.66579 0 1.45071.11666 2.09804-.05679.57515-.15412 1.02439-.60336 1.17851-1.17852.17345-.64732.05679-1.43224.05679-2.09803 0-1.84095 1.49243-3.33333 3.33333-3.33333"/></g></g></svg>