<svg fill="none" height="24" viewBox="0 0 24 24" width="24" xmlns="http://www.w3.org/2000/svg"><g stroke="#141b34" stroke-linejoin="round"><g stroke-width="1.5"><path d="m20.4593 17.5153c.3605.4155.5407.6232.5407.9847s-.1802.5692-.5407.9847c-.8981 1.0352-2.5212 2.5153-4.4593 2.5153s-3.5612-1.4801-4.4593-2.5153c-.3605-.4155-.5407-.6232-.5407-.9847s.1802-.5692.5407-.9847c.8981-1.0352 2.5212-2.5153 4.4593-2.5153s3.5612 1.4801 4.4593 2.5153z"/><path d="m20 13.0032v-5.18331c0-1.69373 0-2.54061-.268-3.21698-.4308-1.08737-1.3418-1.94507-2.4968-2.35063-.7184-.25228-1.6179-.25228-3.417-.25228-3.1484 0-4.72257 0-5.97984.44148-2.02122.70974-3.61555 2.21072-4.36942 4.11361-.46894 1.18366-.46894 2.66568-.46894 5.62971v2.5462c0 3.0703 0 4.6054.8477 5.6715.24288.3055.53092.5767.85537.8053.91199.6428 2.14712.7679 4.29693.7922" stroke-linecap="round"/><path d="m3 12c0-1.8409 1.49238-3.33333 3.33333-3.33333.66579 0 1.45071.11666 2.09804-.05679.57515-.15412 1.02439-.60336 1.17851-1.17852.17345-.64732.05679-1.43224.05679-2.09803 0-1.84095 1.49243-3.33333 3.33333-3.33333" stroke-linecap="round"/></g><path d="m15.9922 18.5h.009" stroke-linecap="round" stroke-width="2"/></g></svg>