<svg fill="none" height="24" viewBox="0 0 24 24" width="24" xmlns="http://www.w3.org/2000/svg"><g stroke="#141b34" stroke-linecap="round" stroke-linejoin="round" stroke-width="1.5"><path d="m7.50304 4c-.01883-.37149.04881-.65844.23275-.9.45688-.6 1.38756-.6 3.24891-.6h2.0306c1.8613 0 2.792 0 3.2489.6.1839.24156.2516.52851.2328.9"/><path d="m5 8c.03784-.25963.12478-.48407.26968-.68569.58525-.81431 1.79842-.81431 4.22476-.81431h5.01116c2.4263 0 3.6395 0 4.2247.81431.1449.20162.2319.42606.2697.68569"/><path d="m3.81753 15.7128.71888 2.3032c.89552 2.8692 1.66088 3.484 4.67386 3.484h5.57943c3.013 0 3.7784-.6148 4.6739-3.484l.7189-2.3032c.7436-2.3825 1.1154-3.5738.5276-4.3933s-1.8141-.8195-4.2667-.8195h-8.88678c-2.45262 0-3.67892 0-4.26674.8195-.58781.8195-.21599 2.0108.52765 4.3933z"/></g></svg>