<svg fill="none" height="24" viewBox="0 0 24 24" width="24" xmlns="http://www.w3.org/2000/svg"><g stroke="#141b34" stroke-linecap="round" stroke-linejoin="round"><path d="m9.06165 4.82633-5.82254 5.09501c-.49931.43696-.16453 1.21296.52327 1.21296.42021 0 .76086.3146.76086.7028v3.2435c0 2.7904 0 4.1856.93852 5.0525.93853.8669 2.44906.8669 5.47014.8669h2.1362c3.0211 0 4.5316 0 5.4701-.8669.9386-.8669.9386-2.2621.9386-5.0525v-3.2435c0-.3882.3406-.7028.7608-.7028.6878 0 1.0226-.776.5233-1.21296l-5.8226-5.09501c-1.3914-1.21755-2.0871-1.82633-2.9383-1.82633s-1.5469.60878-2.93835 1.82633z" stroke-width="1.5"/><path d="m12 16h.009" stroke-width="2"/></g></svg>