<svg fill="none" height="24" viewBox="0 0 24 24" width="24" xmlns="http://www.w3.org/2000/svg"><g stroke="#141b34" stroke-width="1.5"><path d="m15 10.75c0 1.6569-1.3431 3-3 3s-3-1.3431-3-3c0-1.65685 1.3431-3 3-3s3 1.34315 3 3z"/><g stroke-linecap="round"><path d="m20.0684 6.49188-.4303-.74952c-.3254-.56685-.4882-.85028-.765-.9633-.2769-.11302-.59-.02384-1.2162.15453l-1.0638.30073c-.3998.09254-.8193.04005-1.1844-.14821l-.2936-.17008c-.3131-.20124-.5539-.49795-.6872-.84672l-.2911-.87271c-.1914-.57752-.2871-.86627-.515-1.03144-.2279-.16516-.5305-.16516-1.1359-.16516h-.9718c-.6054 0-.908 0-1.1359.16516-.2279.16517-.3236.45392-.515 1.03144l-.29114.87271c-.13328.34877-.37406.64548-.68711.84672l-.29369.17008c-.36506.18826-.78453.24075-1.18433.14821l-1.0638-.30073c-.62624-.17837-.93936-.26755-1.21622-.15453s-.43957.39645-.76501.9633l-.43031.74952c-.30504.53135-.45757.79702-.42797 1.07984.02961.28281.23379.51072.64217.96655l.89885 1.00862c.21969.27914.37566.76561.37566 1.20301 0 .4376-.15592.9239-.37563 1.2031l-.89888 1.0087c-.40837.4558-.61256.6837-.64216.9665-.02961.2828.12292.5485.42797 1.0798l.43029.7495c.32543.5669.48816.8503.76502.9634.27687.113.58999.0238 1.21624-.1546l1.06374-.3007c.39988-.0926.81942-.0401 1.18453.1483l.29364.1701c.31298.2012.55372.4979.68698.8466l.29116.8728c.1914.5775.2871.8663.515 1.0314.2279.1652.5305.1652 1.1359.1652h.9718c.6054 0 .908 0 1.1359-.1652.2279-.1651.3236-.4539.515-1.0314l.2912-.8728c.1332-.3487.374-.6454.6869-.8466l.2937-.1701c.3651-.1884.7846-.2409 1.1845-.1483l1.0638.3007c.6262.1784.9393.2676 1.2162.1546.2769-.1131.4396-.3965.765-.9634l.4303-.7495c.3051-.5313.4576-.797.428-1.0798s-.2338-.5107-.6422-.9665l-.8989-1.0087c-.2197-.2792-.3756-.7655-.3756-1.2031 0-.4374.156-.92387.3757-1.20301l.8988-1.00862c.4084-.45583.6126-.68374.6422-.96655.0296-.28282-.1229-.54849-.428-1.07984z"/><path d="m22 18c0 .93 0 1.395-.1022 1.7765-.2774 1.0352-1.0861 1.8439-2.1213 2.1213-.3815.1022-.8465.1022-1.7765.1022h-12c-.92997 0-1.39496 0-1.77646-.1022-1.03527-.2774-1.84392-1.0861-2.12132-2.1213-.10222-.3815-.10222-.8465-.10222-1.7765"/></g></g></svg>