<svg fill="none" height="24" viewBox="0 0 24 24" width="24" xmlns="http://www.w3.org/2000/svg"><g stroke="#141b34" stroke-linecap="round" stroke-width="1.5"><path d="m10 13.229c.1416.2319.3097.4514.5042.6538 1.2075 1.2567 3.048 1.4532 4.4534.5894.2604-.1601.5058-.3565.7296-.5894l3.2394-3.3714c1.4312-1.48956 1.4312-3.90464 0-5.39422-1.4313-1.48958-3.7518-1.48957-5.1831 0l-.7135.7426"/><path d="m10.9703 18.14-.7138.7428c-1.43124 1.4896-3.75179 1.4896-5.18305 0-1.43127-1.4896-1.43127-3.9046 0-5.3942l3.23942-3.3714c1.43126-1.48959 3.75183-1.4896 5.18303 0 .1945.2023.3625.4218.5041.6536"/></g></svg>