<svg fill="none" height="24" viewBox="0 0 24 24" width="24" xmlns="http://www.w3.org/2000/svg"><g stroke="#141b34" stroke-linejoin="round" stroke-width="1.5"><path d="m7.79098 19c-.32634-.1319-.50657-.1958-.60739-.1834-.12391.0151-.30369.1471-.66325.4109-.63397.4653-1.43264.7995-2.61706.7708-.59891-.0145-.89837-.0218-1.03243-.2493-.13406-.2274.03291-.5423.36684-1.1721.46314-.8735.75658-1.8734.31194-2.6746-.76579-1.1445-1.41627-2.4998-1.51133-3.9636-.05107-.7865-.05107-1.601 0-2.38749.26099-4.01906 3.43275-7.22045 7.41462-7.48388 1.35568-.08968 2.77398-.08987 4.13248 0 3.9649.26231 7.1266 3.43765 7.4111 7.43267" stroke-linecap="round"/><path d="m14.6976 21.6471c-2.5098-.1609-4.509-2.1173-4.6735-4.5734-.03215-.4807-.03215-.9784 0-1.4591.1645-2.4561 2.1637-4.4125 4.6735-4.5735.8563-.0549 1.7503-.0548 2.6048 0 2.5098.161 4.509 2.1174 4.6735 4.5735.0321.4807.0321.9784 0 1.4591-.06.8945-.47 1.7228-.9526 2.4221-.2803.4896-.0953 1.1007.1966 1.6345.2105.3849.3157.5773.2312.7163-.0845.1391-.2733.1435-.6508.1524-.7465.0175-1.2499-.1867-1.6495-.4711-.2266-.1612-.34-.2418-.4181-.2511s-.2318.0518-.5391.1739c-.2762.1098-.597.1776-.8912.1964-.8545.0549-1.7485.055-2.6048 0z"/></g></svg>