<svg fill="none" height="24" viewBox="0 0 24 24" width="24" xmlns="http://www.w3.org/2000/svg"><g stroke="#141b34" stroke-linecap="round" stroke-linejoin="round" stroke-width="1.5"><path d="m7 18v-2.5m0 0v-1.5c0-.4714 0-.7071.15377-.8536.15377-.1464.40126-.1464.89623-.1464h.7c.72487 0 1.3125.5596 1.3125 1.25s-.58763 1.25-1.3125 1.25zm14-2.5h-1.3125c-.825 0-1.2374 0-1.4937.2441s-.2563.6369-.2563 1.4226v.8333m0 2.5v-2.5m0 0h2.1875m-4.375 0c0 1.3807-1.1753 2.5-2.625 2.5-.3271 0-.4907 0-.6125-.067-.2917-.1604-.2625-.485-.2625-.7663v-3.3334c0-.2813-.0292-.6059.2625-.7663.1218-.067.2854-.067.6125-.067 1.4497 0 2.625 1.1193 2.625 2.5z"/><path d="m15 22h-4.2727c-3.26123 0-4.89184 0-6.02423-.7978-.32445-.2286-.61249-.4997-.85537-.8051-.8477-1.0658-.8477-2.6005-.8477-5.6698v-2.5455c0-2.96315 0-4.44474.46894-5.62805.75387-1.90233 2.3482-3.40287 4.36942-4.1124 1.25727-.44135 2.83144-.44135 5.97984-.44135 1.7991 0 2.6986 0 3.417.2522 1.155.40545 2.066 1.2629 2.4968 2.34994.268.67618.268 1.5228.268 3.21604v2.18182"/><path d="m3 12c0-1.8409 1.49238-3.33333 3.33333-3.33333.66579 0 1.45071.11666 2.09804-.05679.57515-.15412 1.02439-.60336 1.17851-1.17852.17345-.64732.05679-1.43224.05679-2.09803 0-1.84095 1.49243-3.33333 3.33333-3.33333"/></g></svg>