<svg fill="none" height="24" viewBox="0 0 24 24" width="24" xmlns="http://www.w3.org/2000/svg"><g stroke="#141b34" stroke-linecap="round" stroke-width="1.5"><path d="m12.3529 13 1.6471 2.5m0 0 1.6471 2.5m-1.6471-2.5 1.6471-2.5m-1.6471 2.5-1.6471 2.5m5.353-5h1.647m0 0h1.6471m-1.6471 0v5m-12.3529-5h1.64706m0 0h1.64704m-1.64704 0v5"/><g stroke-linejoin="round"><path d="m15 22h-4.2727c-3.26123 0-4.89184 0-6.02423-.7978-.32445-.2286-.61249-.4997-.85537-.8051-.8477-1.0658-.8477-2.6005-.8477-5.6698v-2.5455c0-2.96315 0-4.44474.46894-5.62805.75387-1.90233 2.3482-3.40287 4.36942-4.1124 1.25727-.44135 2.83144-.44135 5.97984-.44135 1.7991 0 2.6986 0 3.417.2522 1.155.40545 2.066 1.2629 2.4968 2.34994.268.67618.268 1.5228.268 3.21604v2.18182"/><path d="m3 12c0-1.8409 1.49238-3.33333 3.33333-3.33333.66579 0 1.45071.11666 2.09804-.05679.57515-.15412 1.02439-.60336 1.17851-1.17852.17345-.64732.05679-1.43224.05679-2.09803 0-1.84095 1.49243-3.33333 3.33333-3.33333"/></g></g></svg>