<svg fill="none" height="24" viewBox="0 0 24 24" width="24" xmlns="http://www.w3.org/2000/svg"><g stroke="#141b34" stroke-width="1.5"><path d="m21.544 11.045c.304.4263.456.6395.456.955s-.152.5287-.456.955c-1.3661 1.9156-4.8548 6.045-9.544 6.045-4.68922 0-8.1779-4.1294-9.54396-6.045-.30403-.4263-.45604-.6395-.45604-.955s.15201-.5287.45604-.955c1.36606-1.91556 4.85474-6.045 9.54396-6.045 4.6892 0 8.1779 4.12944 9.544 6.045z"/><path d="m15 12c0-1.6569-1.3431-3-3-3s-3 1.3431-3 3 1.3431 3 3 3 3-1.3431 3-3z"/></g></svg>