<svg fill="none" height="24" viewBox="0 0 24 24" width="24" xmlns="http://www.w3.org/2000/svg"><g stroke="#141b34"><path d="m20.3584 13.3567c-1.1895 1.1893-3.4276 1.1431-6.8592 1.1431-2.2078 0-3.99782-1.7927-3.99896-4.0005 0-3.42929-.04624-5.66865 1.14326-6.85792 1.1894-1.18926 1.7148-1.14111 6.9839-1.14111.5092-.00218.7655.61362.4055.97367l-2.713 2.7132c-.6886.68868-.6905 1.80519-.0018 2.49378.6887.6886 1.8053.68867 2.4941.00017l2.7137-2.71254c.3601-.35996.976-.10372.9738.4054 0 5.26825.0482 5.79355-1.1413 6.98275z" stroke-width="1.5"/><g stroke-linecap="round"><path d="m13.5 14.5-6.17158 6.1716c-1.10456 1.1045-2.89542 1.1045-3.99999 0-1.10457-1.1046-1.10457-2.8955 0-4l6.17157-6.1716" stroke-width="1.5"/><path d="m5.50896 18.5h-.00896" stroke-linejoin="round" stroke-width="2"/></g></g></svg>