<svg fill="none" height="24" viewBox="0 0 24 24" width="24" xmlns="http://www.w3.org/2000/svg"><g stroke="#141b34" stroke-linecap="round" stroke-linejoin="round" stroke-width="1.5"><path d="m7 13 1.64706 2.5m0 0 1.64704 2.5m-1.64704-2.5 1.64704-2.5m-1.64704 2.5-1.64706 2.5m14 0h-.8235c-.7765 0-1.1647 0-1.4059-.2441s-.2412-.6369-.2412-1.4226v-3.3333m-6.1765 4.9999.3417-4.1653c.029-.3533.0435-.53.1504-.563.1068-.033.2163.1055.4351.3823l.8728 1.104c.1187.1502.1781.2252.2573.2252.0791 0 .1385-.075.2572-.2252l.8733-1.1046c.2187-.2766.328-.4149.4348-.382.1069.0329.1215.2094.1507.5625l.3444 4.1661"/><path d="m15 22h-4.2727c-3.26123 0-4.89184 0-6.02423-.7978-.32445-.2286-.61249-.4997-.85537-.8051-.8477-1.0658-.8477-2.6005-.8477-5.6698v-2.5455c0-2.96315 0-4.44474.46894-5.62805.75387-1.90233 2.3482-3.40287 4.36942-4.1124 1.25727-.44135 2.83144-.44135 5.97984-.44135 1.7991 0 2.6986 0 3.417.2522 1.155.40545 2.066 1.2629 2.4968 2.34994.268.67618.268 1.5228.268 3.21604v2.18182"/><path d="m3 12c0-1.8409 1.49238-3.33333 3.33333-3.33333.66579 0 1.45071.11666 2.09804-.05679.57515-.15412 1.02439-.60336 1.17851-1.17852.17345-.64732.05679-1.43224.05679-2.09803 0-1.84095 1.49243-3.33333 3.33333-3.33333"/></g></svg>