<svg height="16" viewBox="0 0 16 16" width="16" xmlns="http://www.w3.org/2000/svg"><path d="m9.58442 2.00201c.39725 0 .77828.15758 1.05948.43817l1.9156 1.91135c.282.2814.4405.66343.4405 1.06183v1.67083c.5826.20592 1 .76154 1 1.41465v4.00317c0 .82849-.6716 1.5-1.5 1.5h-9c-.82843 0-1.5-.67151-1.5-1.5v-4.00317c0-.65311.4174-1.20873 1-1.41465v-3.58218c0-.82842.67157-1.5 1.5-1.5zm2.91558 5.99683h-9c-.27614 0-.5.22386-.5.5v4.00316c0 .2762.22386.5.5.5h9c.2761 0 .5-.2238.5-.5v-4.00316c0-.27614-.2239-.5-.5-.5zm-7.16704 1.00421c.6444 0 1.1668.5224 1.1668 1.16685 0 .6444-.5224 1.1667-1.1668 1.1667h-.3332v.1665c0 .2761-.22386.5-.5.5-.27615 0-.5-.2239-.5-.5v-2.00005c0-.27614.22385-.5.5-.5zm2.66678 0c.82843 0 1.5.67158 1.5 1.50005 0 .8284-.67158 1.5-1.5 1.5h-.50145c-.27614 0-.5-.2239-.5-.5v-2.00005c0-.27614.22386-.5.5-.5zm3.49906 0c.2761 0 .5.22386.5.5s-.2239.50005-.5.50005h-.499l-.0004.3344h.4994c.2761 0 .5.2239.5.5 0 .2762-.2239.5-.5.5h-.4988l.0005.1643c.0007.2761-.2226.5006-.4988.5012016-.2761.0006984-.5005-.2225016-.5012-.4987016l-.00172-.6674.00172-1.33448c.0003-.27589.2241-.49937.5-.49937zm-3.49906 1.00005h-.00145v1c.27759 0 .50145-.2239.50145-.5 0-.2762-.22386-.5-.5-.5zm-2.66678 0h-.3332v.3335h.3332c.09212 0 .1668-.0746.1668-.1667 0-.0922-.07468-.1668-.1668-.1668zm3.66704-7.00109h-4.5c-.27614 0-.5.22386-.5.5v3.49683h8v-.99884h-1.5c-.82843 0-1.5-.67157-1.5-1.5zm1 .20834v1.28965c0 .27614.2239.5.5.5h1.2936z" fill="#212121"/></svg>