<svg height="512" width="512" xmlns="http://www.w3.org/2000/svg"><path d="m488.8765564 52.4466248-186.5710449.0001831v-46.5264402h-34.7785034l-267.5270081 46.6427579v406.9899902l265.9566956 46.5264282h36.3488159v-46.3522644l174.5904541.0003052c9.8868713-.46521 20.8787231.290802 29.369812-5.7575989 6.8044739-10.4103088 5.0597534-23.4377441 5.6413269-35.1856384v-343.7721939c1.2213745-13.2600441-9.7705689-23.903183-23.0305481-22.5655288zm-294.8612976 282.5901489c-9.7124176 5.0596924-24.2518921-.2326355-35.7672272.581543-7.7350159-38.5005798-16.749527-76.7685852-23.6703033-115.4437103-6.8044739 37.5701141-15.6445007 74.7912445-23.4376755 112.1287079-11.1663818-.581604-22.3908691-1.2795105-33.6153488-2.0355225-9.6542511-51.1790771-20.9950562-102.0092163-30.0095596-153.3046265 9.9449844-.465271 19.9481964-.8723907 29.8932419-1.221283 5.990242 37.0466766 12.7947693 73.9188538 18.0289536 111.0236816 8.2002792-38.0353699 16.5750351-76.0707245 24.7171631-114.1060333 11.0500717-.6397552 22.1000748-1.1050262 33.1500778-1.686615 7.7350769 39.2566528 15.6445007 78.4551849 24.0193176 117.5374298 6.5718384-40.3617401 13.841568-80.6070709 20.8787384-120.9106445 11.6315918-.4071045 23.2631836-1.0467987 34.8366852-1.7447052-13.1437226 56.3551178-24.6590119 113.1755524-39.0240632 169.181778zm290.211792 97.0690002h-181.9215393v-36.5264587h151.2109375v-23.2632446h-151.2109375v-29.07901h151.2109375v-23.2631836h-151.2109375v-29.0791016h151.2109375v-23.2631836h-151.2109375v-29.07901h151.2109375v-23.2632599h-151.2109375v-29.07901h151.2109375v-23.2631989h-151.2109375v-29.07901h151.2109375v-23.2632599h-151.2109375v-30.7106094h181.9215393z"/></svg>